<svg width="46" height="46" viewBox="0 0 46 46" fill="none" xmlns="http://www.w3.org/2000/svg">
<path d="M27.043 23C27.043 25.2328 25.2328 27.043 23 27.043C20.7672 27.043 18.957 25.2328 18.957 23C18.957 20.7672 20.7672 18.957 23 18.957C25.2328 18.957 27.043 20.7672 27.043 23Z" fill="white"/>
<path d="M29.8281 10.7812H16.1719C13.1993 10.7812 10.7812 13.1993 10.7812 16.1719V29.8281C10.7812 32.8007 13.1993 35.2188 16.1719 35.2188H29.8281C32.8007 35.2188 35.2188 32.8007 35.2188 29.8281V16.1719C35.2188 13.1993 32.8007 10.7812 29.8281 10.7812ZM23 29.7383C19.2845 29.7383 16.2617 26.7155 16.2617 23C16.2617 19.2845 19.2845 16.2617 23 16.2617C26.7155 16.2617 29.7383 19.2845 29.7383 23C29.7383 26.7155 26.7155 29.7383 23 29.7383ZM30.7266 16.6211C29.9822 16.6211 29.3789 16.0178 29.3789 15.2734C29.3789 14.5291 29.9822 13.9258 30.7266 13.9258C31.4709 13.9258 32.0742 14.5291 32.0742 15.2734C32.0742 16.0178 31.4709 16.6211 30.7266 16.6211Z" fill="white"/>
<path d="M33.8711 0H12.1289C5.44116 0 0 5.44116 0 12.1289V33.8711C0 40.5588 5.44116 46 12.1289 46H33.8711C40.5588 46 46 40.5588 46 33.8711V12.1289C46 5.44116 40.5588 0 33.8711 0ZM37.9141 29.8281C37.9141 34.2866 34.2866 37.9141 29.8281 37.9141H16.1719C11.7134 37.9141 8.08594 34.2866 8.08594 29.8281V16.1719C8.08594 11.7134 11.7134 8.08594 16.1719 8.08594H29.8281C34.2866 8.08594 37.9141 11.7134 37.9141 16.1719V29.8281Z" fill="white"/>
</svg>
