<svg width="46" height="46" viewBox="0 0 46 46" fill="none" xmlns="http://www.w3.org/2000/svg">
<path d="M40.8741 17.8404C39.4212 17.8404 38.1428 18.4518 37.2017 19.4044C33.7421 16.974 29.077 15.41 23.9077 15.2433L26.593 2.96512L35.1432 4.91246C35.1432 7.03613 36.8491 8.77071 38.9421 8.77071C41.0753 8.77071 42.7907 6.99013 42.7907 4.86454C42.7907 2.73896 41.0868 0.958374 38.944 0.958374C37.4509 0.958374 36.1629 1.87262 35.5208 3.12229L26.0774 0.998624C25.6021 0.870207 25.1363 1.21521 25.0098 1.69821L22.062 15.2337C16.933 15.4503 12.3176 17.0124 8.84656 19.4446C7.90548 18.4518 6.57723 17.8404 5.1244 17.8404C-0.265268 17.8404 -2.03052 25.1793 2.9049 27.6882C2.73048 28.4645 2.6519 29.2925 2.6519 30.1185C2.6519 38.3621 11.804 45.0417 23.0414 45.0417C34.3267 45.0417 43.4788 38.3621 43.4788 30.1185C43.4788 29.2925 43.3926 28.4261 43.1798 27.648C48.0156 25.1295 46.235 17.8442 40.8741 17.8404ZM10.7364 28.2095C10.7364 26.0456 12.4422 24.3034 14.5851 24.3034C16.6781 24.3034 18.3858 26.0341 18.3858 28.2095C18.3858 30.3351 16.68 32.0678 14.5851 32.0678C12.4518 32.0774 10.7364 30.3351 10.7364 28.2095ZM31.5111 37.4057C27.9826 40.986 18.0255 40.986 14.495 37.4057C14.1059 37.0607 14.1059 36.4512 14.495 36.0583C14.8342 35.7133 15.4361 35.7133 15.7753 36.0583C18.4701 38.8624 27.4095 38.9103 30.2212 36.0583C30.5605 35.7133 31.1623 35.7133 31.5016 36.0583C31.8983 36.4531 31.8983 37.0626 31.5111 37.4057ZM31.4326 32.0755C29.3396 32.0755 27.6337 30.3447 27.6337 28.221C27.6337 26.0571 29.3396 24.3149 31.4326 24.3149C33.5658 24.3149 35.2812 26.0456 35.2812 28.221C35.2716 30.3351 33.5658 32.0755 31.4326 32.0755Z" fill="white"/>
</svg>
