<svg width="46" height="38" viewBox="0 0 46 38" fill="none" xmlns="http://www.w3.org/2000/svg">
<path d="M46 4.73712C44.2894 5.4875 42.4666 5.98487 40.5662 6.22637C42.5212 5.05912 44.0134 3.22487 44.7149 1.014C42.8921 2.10075 40.8796 2.86838 38.7349 3.29675C37.0041 1.45388 34.5374 0.3125 31.8464 0.3125C26.6254 0.3125 22.4221 4.55025 22.4221 9.74538C22.4221 10.4929 22.4854 11.2116 22.6406 11.8959C14.8005 11.5135 7.86312 7.75588 3.20275 2.03175C2.38912 3.44338 1.91188 5.05912 1.91188 6.7985C1.91188 10.0645 3.59375 12.9596 6.10075 14.6357C4.58562 14.607 3.09925 14.1671 1.84 13.4742C1.84 13.503 1.84 13.5404 1.84 13.5777C1.84 18.1605 5.10887 21.967 9.3955 22.8439C8.62787 23.0537 7.79125 23.1544 6.923 23.1544C6.31925 23.1544 5.70975 23.1199 5.13762 22.9934C6.3595 26.728 9.82675 29.4736 13.9495 29.5627C10.741 32.0726 6.66713 33.5849 2.25688 33.5849C1.4835 33.5849 0.74175 33.5504 0 33.4555C4.17737 36.1494 9.12813 37.6875 14.467 37.6875C31.8205 37.6875 41.308 23.3125 41.308 10.8523C41.308 10.4354 41.2936 10.0329 41.2735 9.63325C43.1451 8.305 44.7178 6.64612 46 4.73712Z" fill="white"/>
</svg>
